<svg width="40" height="32" viewBox="0 0 40 32" fill="none" xmlns="http://www.w3.org/2000/svg">
<g filter="url(#filter0_d_1_98)">
<g clip-path="url(#clip0_1_98)">
<path d="M-2.29688 5H41.4265V27.0587H-2.29688V5Z" fill="#012169"/>
<path d="M-2.29688 5V7.46437L36.5375 27.0587H41.4265V24.5943L2.59212 5H-2.29688ZM41.4265 5V7.46437L2.59212 27.0587H-2.29688V24.5943L36.5375 5H41.4265Z" fill="white"/>
<path d="M15.9226 5V27.0587H23.207V5H15.9226ZM-2.29688 12.3543V19.7043H41.4265V12.3543H-2.29688Z" fill="white"/>
<path d="M-2.29688 13.8235V18.2352H41.4265V13.8235H-2.29688ZM17.3787 5V27.0587H21.751V5H17.3787ZM-2.29688 27.0587L12.2762 19.7043H15.5384L0.961032 27.0587H-2.29688ZM-2.29688 5L12.2762 12.3543H9.01827L-2.29688 6.64578V5ZM23.5956 12.3543L38.1686 5H41.4265L26.8535 12.3543H23.5956ZM41.4265 27.0587L26.8535 19.7043H30.1114L41.4265 25.4129V27.0587Z" fill="#C8102E"/>
</g>
</g>
<defs>
<filter id="filter0_d_1_98" x="0" y="0" width="39.0714" height="32" filterUnits="userSpaceOnUse" color-interpolation-filters="sRGB">
<feFlood flood-opacity="0" result="BackgroundImageFix"/>
<feColorMatrix in="SourceAlpha" type="matrix" values="0 0 0 0 0 0 0 0 0 0 0 0 0 0 0 0 0 0 127 0" result="hardAlpha"/>
<feOffset/>
<feGaussianBlur stdDeviation="2.5"/>
<feComposite in2="hardAlpha" operator="out"/>
<feColorMatrix type="matrix" values="0 0 0 0 0.0458333 0 0 0 0 0.542 0 0 0 0 1 0 0 0 0.25 0"/>
<feBlend mode="normal" in2="BackgroundImageFix" result="effect1_dropShadow_1_98"/>
<feBlend mode="normal" in="SourceGraphic" in2="effect1_dropShadow_1_98" result="shape"/>
</filter>
<clipPath id="clip0_1_98">
<rect x="5" y="5" width="29.0714" height="22" rx="5" fill="white"/>
</clipPath>
</defs>
</svg>
